<svg width="63" height="63" viewBox="0 0 63 63" fill="none" xmlns="http://www.w3.org/2000/svg">
<rect width="63" height="63" fill="#FEBF86"/>
<path d="M23.692 42.244V38.824C23.692 37.456 24.28 36.292 25.456 35.332L32.08 29.716C33.16 28.828 33.7 27.868 33.7 26.836V25.756C33.7 25.012 33.52 24.484 33.16 24.172C32.824 23.836 32.26 23.668 31.468 23.668H30.208C29.44 23.668 28.9 23.836 28.588 24.172C28.276 24.484 28.12 25.012 28.12 25.756V26.908C28.12 27.436 27.868 27.7 27.364 27.7H24.304C23.8 27.7 23.548 27.436 23.548 26.908V25.684C23.548 23.812 24.064 22.372 25.096 21.364C26.128 20.356 27.592 19.852 29.488 19.852H32.224C34.12 19.852 35.584 20.356 36.616 21.364C37.648 22.372 38.164 23.812 38.164 25.684V27.124C38.164 28.996 37.444 30.544 36.004 31.768L29.236 37.528C28.948 37.792 28.804 38.08 28.804 38.392V38.968H37.408C37.912 38.968 38.164 39.22 38.164 39.724V42.244C38.164 42.748 37.912 43 37.408 43H24.448C23.944 43 23.692 42.748 23.692 42.244Z" fill="white"/>
</svg>
