<svg width="63" height="63" viewBox="0 0 63 63" fill="none" xmlns="http://www.w3.org/2000/svg">
<rect width="63" height="63" fill="#6896A5"/>
<path d="M29.884 29.536H31.72C32.512 29.536 33.076 29.38 33.412 29.068C33.772 28.732 33.952 28.192 33.952 27.448V25.756C33.952 25.012 33.772 24.484 33.412 24.172C33.076 23.836 32.512 23.668 31.72 23.668H29.992C29.224 23.668 28.684 23.836 28.372 24.172C28.06 24.484 27.904 25.012 27.904 25.756V26.656C27.904 27.16 27.652 27.412 27.148 27.412H24.088C23.584 27.412 23.332 27.16 23.332 26.656V25.684C23.332 23.812 23.848 22.372 24.88 21.364C25.912 20.356 27.376 19.852 29.272 19.852H32.476C34.372 19.852 35.836 20.356 36.868 21.364C37.9 22.372 38.416 23.812 38.416 25.684V27.484C38.416 29.5 37.468 30.808 35.572 31.408C37.468 31.816 38.416 33.124 38.416 35.332V37.168C38.416 39.04 37.9 40.48 36.868 41.488C35.836 42.496 34.372 43 32.476 43H29.272C27.376 43 25.912 42.496 24.88 41.488C23.848 40.48 23.332 39.04 23.332 37.168V36.16C23.332 35.632 23.584 35.368 24.088 35.368H27.148C27.652 35.368 27.904 35.632 27.904 36.16V37.096C27.904 37.864 28.06 38.404 28.372 38.716C28.684 39.028 29.224 39.184 29.992 39.184H31.72C32.512 39.184 33.076 39.028 33.412 38.716C33.772 38.38 33.952 37.84 33.952 37.096V35.332C33.952 34.588 33.772 34.06 33.412 33.748C33.076 33.412 32.512 33.244 31.72 33.244H29.884C29.38 33.244 29.128 32.992 29.128 32.488V30.328C29.128 29.8 29.38 29.536 29.884 29.536Z" fill="white"/>
</svg>
