<svg width="63" height="63" viewBox="0 0 63 63" fill="none" xmlns="http://www.w3.org/2000/svg">
<rect width="63" height="63" fill="#5AB17F"/>
<path d="M33.448 34.828V23.704L27.616 34.828H33.448ZM37.012 43H34.204C33.7 43 33.448 42.748 33.448 42.244V38.788H24.52C24.112 38.788 23.788 38.668 23.548 38.428C23.308 38.188 23.188 37.864 23.188 37.456V36.052C23.188 35.332 23.308 34.744 23.548 34.288L30.712 20.968C30.952 20.536 31.168 20.248 31.36 20.104C31.576 19.936 31.888 19.852 32.296 19.852H36.364C36.772 19.852 37.096 19.972 37.336 20.212C37.6 20.452 37.732 20.776 37.732 21.184V34.828H40.324C40.804 34.828 41.044 35.068 41.044 35.548V37.96C41.044 38.512 40.804 38.788 40.324 38.788H37.732V42.244C37.732 42.532 37.672 42.736 37.552 42.856C37.456 42.952 37.276 43 37.012 43Z" fill="white"/>
</svg>
