<svg width="96" height="96" viewBox="0 0 96 96" fill="none" xmlns="http://www.w3.org/2000/svg">
<g clip-path="url(#clip0)">
<path d="M80.0132 31.6761C79.2797 32.0612 78.9973 32.9679 79.3824 33.7014C82.4032 39.4551 84 45.9555 84 52.5C84 63.3178 79.7872 73.4884 72.1378 81.1378C64.4884 88.7874 54.318 93 43.5 93C32.682 93 22.5116 88.7872 14.8622 81.1378C7.21275 73.4886 3 63.318 3 52.5C3 41.682 7.21275 31.5116 14.8622 23.8622C22.5116 16.2127 32.682 12 43.5 12C50.0467 12 56.5491 13.5977 62.304 16.6204C63.0373 17.0061 63.9442 16.7235 64.3294 15.99C64.7145 15.2567 64.4323 14.3497 63.6988 13.9646C57.5154 10.7167 50.5309 9 43.5 9C31.8806 9 20.9569 13.5247 12.7408 21.7408C4.52475 29.9569 0 40.8808 0 52.5C0 64.1192 4.52475 75.0431 12.7408 83.2592C20.9569 91.4753 31.8806 96 43.5 96C55.1194 96 66.0431 91.4753 74.2592 83.2592C82.4753 75.0431 87 64.1194 87 52.5C87 45.4716 85.2844 38.4887 82.0386 32.3068C81.6534 31.5733 80.7467 31.2909 80.0132 31.6761Z" fill="#A378CD"/>
<path d="M62.7578 25.6569C63.2102 24.963 63.0146 24.0336 62.3205 23.5811C56.7212 19.9299 50.2132 18 43.5 18C24.4766 18 9 33.4766 9 52.5C9 71.5234 24.4766 87 43.5 87C62.5234 87 78 71.5234 78 52.5C78 45.7894 76.0714 39.2835 72.4228 33.6855C71.9704 32.9916 71.0411 32.7953 70.3472 33.2479C69.6531 33.7001 69.4571 34.6296 69.9096 35.3235C73.2398 40.4333 75 46.3727 75 52.5C75 69.8693 60.8693 84 43.5 84C26.1307 84 12 69.8693 12 52.5C12 35.1307 26.1307 21 43.5 21C49.6297 21 55.5712 22.7616 60.6819 26.094C61.3757 26.5464 62.3051 26.3507 62.7578 25.6569Z" fill="#A378CD"/>
<path d="M57.4958 32.9436C57.9356 32.2416 57.723 31.3159 57.021 30.8762C52.9734 28.3404 48.2979 27 43.5 27C29.4392 27 18 38.4394 18 52.5C18 66.5606 29.4392 78 43.5 78C57.5608 78 69 66.5606 69 52.5C69 47.7021 67.6599 43.0269 65.1244 38.9797C64.6845 38.2778 63.7588 38.0649 63.057 38.505C62.355 38.9449 62.1424 39.8704 62.5823 40.5724C64.818 44.1416 66 48.2661 66 52.5C66 64.9065 55.9065 75 43.5 75C31.0935 75 21 64.9065 21 52.5C21 40.0935 31.0935 30 43.5 30C47.7341 30 51.8587 31.182 55.4282 33.4181C56.1304 33.8582 57.0559 33.6456 57.4958 32.9436Z" fill="#A378CD"/>
<path d="M51.399 39.6577C51.7612 38.9126 51.4509 38.0151 50.7058 37.653C48.45 36.5561 46.0256 36 43.5 36C34.4019 36 27 43.4019 27 52.5C27 61.5981 34.4019 69 43.5 69C52.5981 69 60 61.5981 60 52.5C60 49.9768 59.4448 47.5543 58.35 45.2998C57.9879 44.5545 57.0906 44.2434 56.3454 44.6059C55.6003 44.9679 55.2896 45.8653 55.6515 46.6104C56.5463 48.453 57 50.4347 57 52.5C57 59.9439 50.9439 66 43.5 66C36.0561 66 30 59.9439 30 52.5C30 45.0561 36.0561 39 43.5 39C45.5674 39 47.5506 39.4545 49.3941 40.3507C50.1388 40.713 51.0366 40.4027 51.399 39.6577Z" fill="#A378CD"/>
<path d="M42.5578 48.0986C43.368 47.9261 43.8853 47.1296 43.7128 46.3194C43.5405 45.5094 42.7444 44.9925 41.9336 45.1642C38.4954 45.8955 36 48.9808 36 52.5C36 56.6355 39.3645 60 43.5 60C47.0473 60 50.1375 57.4807 50.8478 54.0099C51.0139 53.1984 50.4906 52.4057 49.6791 52.2397C48.867 52.0745 48.0748 52.5969 47.9089 53.4086C47.4827 55.4897 45.6287 57 43.5 57C41.0188 57 39 54.9812 39 52.5C39 50.3882 40.4963 48.5372 42.5578 48.0986Z" fill="#A378CD"/>
<path d="M95.8859 9.92606C95.6538 9.36562 95.1069 8.99999 94.5001 8.99999H87.0001V1.49999C87.0001 0.893431 86.6347 0.346494 86.0743 0.114181C85.5138 -0.118131 84.8685 0.0103064 84.4396 0.439119L65.6896 19.1891C65.4084 19.4706 65.2503 19.8519 65.2503 20.2498V28.6284L42.4395 51.4393C41.8535 52.0252 41.8535 52.9747 42.4395 53.5607C42.7323 53.8536 43.1161 54 43.5001 54C43.8841 54 44.268 53.8536 44.5608 53.5607L67.3715 30.75H75.7501C76.148 30.75 76.5296 30.5919 76.8108 30.3107L95.5608 11.5607C95.9898 11.1317 96.1181 10.4865 95.8859 9.92606ZM75.129 27.75H70.3715L82.0608 16.0607C82.6468 15.4747 82.6468 14.5252 82.0608 13.9393C81.4751 13.3537 80.5254 13.3537 79.9396 13.9393L68.2501 25.6286V20.8712L84.0001 5.12118V10.5C84.0001 11.3284 84.6718 12 85.5001 12H90.879L75.129 27.75Z" fill="#A378CD"/>
</g>
<defs>
<clipPath id="clip0">
<rect width="96" height="96" fill="white"/>
</clipPath>
</defs>
</svg>
