<svg width="96" height="96" viewBox="0 0 96 96" fill="none" xmlns="http://www.w3.org/2000/svg">
<path d="M90.768 31.5774H85.3881V13.3956C85.3881 9.22783 81.9974 5.83728 77.8296 5.83728H12.7042C8.53647 5.83728 5.14592 9.22783 5.14592 13.3956V59.541C5.14592 61.2771 5.75792 62.9091 6.78597 64.2092H2.43355C1.09162 64.209 0 65.3053 0 66.6525V70.2202C0 73.6496 2.76918 76.4394 6.17285 76.4394H41.0483C41.8251 76.4394 42.4545 75.8098 42.4545 75.0331C42.4545 74.2565 41.8251 73.6269 41.0483 73.6269H6.17285C4.31998 73.6269 2.81249 72.0988 2.81249 70.2202V67.0215H62.0549V73.6269H47.6107C46.8339 73.6269 46.2045 74.2565 46.2045 75.0331C46.2045 75.8098 46.8339 76.4394 47.6107 76.4394H62.0549V84.9308C62.0549 87.8159 64.4021 90.163 67.2869 90.163H90.7678C93.6529 90.163 95.9998 87.8159 95.9998 84.9308C95.9998 82.7817 95.9998 38.347 95.9998 36.8095C96 33.9245 93.6529 31.5774 90.768 31.5774ZM62.0549 64.209H11.8537C9.62584 63.8004 7.95859 61.812 7.95859 59.5408V13.3956C7.95859 10.7786 10.0875 8.64977 12.7044 8.64977H77.8298C80.4467 8.64977 82.5758 10.7786 82.5758 13.3956V31.5776H79.8614C79.8614 29.6109 79.8614 15.9909 79.8614 13.8326C79.8614 12.4487 78.7354 11.3226 77.3515 11.3226C76.9684 11.3226 15.1379 11.3226 13.1829 11.3226C11.7988 11.3226 10.6728 12.4485 10.6728 13.8326V59.035C10.6728 60.4189 11.7988 61.545 13.1829 61.545H62.0551V64.209H62.0549ZM77.0487 14.1349V17.8685H20.6602V14.1349H77.0487ZM17.8477 14.1349V17.8685H13.4851V14.1349H17.8477ZM62.0549 36.8093V58.7323H13.4851V20.681H77.0487V31.5774H67.2871C64.4021 31.5774 62.0549 33.9245 62.0549 36.8093ZM64.8674 42.3303H67.6951V45.1461H64.8674V42.3303ZM93.1875 84.9308C93.1875 86.2651 92.1021 87.3505 90.768 87.3505H67.2869C65.9529 87.3505 64.8674 86.2651 64.8674 84.9308V80.9006H93.1875V84.9308ZM93.1875 78.0881H64.8674C64.8674 66.6084 64.8674 59.4263 64.8674 47.9586H93.1875V78.0881ZM93.1875 45.1461H70.5076V42.3303H93.1875V45.1461ZM93.1875 39.5178C91.7522 39.5178 66.1473 39.5178 64.8674 39.5178V36.8093C64.8674 35.4753 65.9529 34.3899 67.2869 34.3899H90.7678C92.1019 34.3899 93.1873 35.4753 93.1873 36.8093V39.5178H93.1875Z" fill="#A378CD"/>
<path d="M77.5327 85.2359H80.522C81.2988 85.2359 81.9283 84.6063 81.9283 83.8297C81.9283 83.053 81.2988 82.4234 80.522 82.4234H77.5327C76.7559 82.4234 76.1265 83.053 76.1265 83.8297C76.1265 84.6063 76.7559 85.2359 77.5327 85.2359Z" fill="#A378CD"/>
<path d="M49.9068 37.3271L43.8723 33.2125C41.9626 31.9101 39.3691 33.2803 39.3691 35.592V43.8216C39.3691 46.1327 41.9617 47.5037 43.8723 46.2011L49.9068 42.0865C51.5823 40.944 51.582 38.4692 49.9068 37.3271ZM48.3223 39.7628L42.2878 43.8776C42.2696 43.8898 42.254 43.9007 42.2178 43.8816C42.1818 43.8625 42.1818 43.8435 42.1818 43.8216V35.592C42.1818 35.5701 42.1818 35.5511 42.2178 35.532C42.2321 35.5245 42.2431 35.5215 42.2525 35.5215C42.2668 35.5215 42.2769 35.5285 42.2878 35.536L48.3223 39.6506C48.3348 39.6593 48.3519 39.6709 48.3519 39.7067C48.3519 39.7427 48.3348 39.7543 48.3223 39.7628Z" fill="#A378CD"/>
<path d="M44.3294 26.541C37.0698 26.541 31.1636 32.4473 31.1636 39.7067C31.1636 46.9661 37.0698 52.8724 44.3294 52.8724C51.5891 52.8724 57.4951 46.9663 57.4951 39.7067C57.4951 32.4471 51.5891 26.541 44.3294 26.541ZM44.3294 50.0601C38.6206 50.0601 33.9761 45.4157 33.9761 39.7069C33.9761 33.9981 38.6206 29.3537 44.3294 29.3537C50.0381 29.3537 54.6826 33.9983 54.6826 39.7069C54.6826 45.4155 50.0381 50.0601 44.3294 50.0601Z" fill="#A378CD"/>
<path d="M78.7324 57.0328C76.9461 55.8148 74.5283 57.1016 74.5283 59.2547V66.4172C74.5283 68.5879 76.9609 69.8469 78.7326 68.6389L83.9845 65.0576C85.549 63.9911 85.5486 61.6806 83.9847 60.6141L78.7324 57.0328ZM77.3408 66.1838V59.4879L82.2507 62.8359L77.3408 66.1838Z" fill="#A378CD"/>
<path d="M79.0277 74.4769C83.9212 74.4769 88.3232 71.3843 89.9814 66.7813C90.2447 66.0507 89.8659 65.245 89.135 64.9817C88.4045 64.7188 87.5987 65.0974 87.3354 65.8281C86.0777 69.319 82.7389 71.6644 79.0275 71.6644C74.1594 71.6644 70.199 67.7038 70.199 62.836C70.199 57.9681 74.1594 54.0075 79.0275 54.0075C82.8949 54.0075 86.2774 56.4829 87.4447 60.1671C87.6791 60.9075 88.47 61.3176 89.2099 61.083C89.9503 60.8485 90.3603 60.0582 90.1258 59.3177C88.5868 54.4594 84.1267 51.1952 79.0277 51.1952C72.609 51.1952 67.3867 56.4175 67.3867 62.8362C67.3867 69.2549 72.609 74.4769 79.0277 74.4769Z" fill="#A378CD"/>
</svg>
