<svg width="821" height="675" viewBox="0 0 821 675" fill="none" xmlns="http://www.w3.org/2000/svg">
<path d="M725.117 547.074C708.578 579.334 687.599 610.533 661.056 638.771C660.467 639.409 659.871 640.03 659.271 640.663L596.382 610.906C596.767 610.267 597.188 609.55 597.642 608.766C624.657 562.569 787.73 280.763 782.577 216.937C783.177 222.201 802.507 396.287 725.117 547.074Z" fill="#E6E6E6"/>
<path d="M673.189 644.512C672.309 645.012 671.406 645.502 670.497 645.975L623.32 623.652C623.979 623.184 624.748 622.631 625.631 622.01C640.085 611.637 683.063 580.518 725.117 547.074C770.311 511.134 814.446 472.517 821 454.084C819.669 458.311 778.303 586.796 673.189 644.512Z" fill="#E6E6E6"/>
<path d="M242.997 675C377.201 675 485.994 664.234 485.994 650.953C485.994 637.673 377.201 626.907 242.997 626.907C108.793 626.907 0 637.673 0 650.953C0 664.234 108.793 675 242.997 675Z" fill="#E6E6E6"/>
<path d="M109.942 662.254C150.153 662.254 182.75 629.674 182.75 589.484C182.75 549.294 150.153 516.714 109.942 516.714C69.7311 516.714 37.1338 549.294 37.1338 589.484C37.1338 629.674 69.7311 662.254 109.942 662.254Z" fill="#6C63FF"/>
<path d="M139.107 558.947H80.7776C78.2002 558.95 75.7292 559.974 73.9067 561.796C72.0842 563.617 71.0591 566.087 71.0562 568.663V610.305C71.059 612.881 72.0842 615.351 73.9067 617.172C75.7292 618.994 78.2002 620.019 80.7776 620.021H139.107C141.684 620.019 144.155 618.994 145.978 617.172C147.8 615.351 148.825 612.881 148.828 610.305V568.663C148.825 566.087 147.8 563.617 145.978 561.796C144.155 559.974 141.684 558.95 139.107 558.947ZM139.107 564.499C139.455 564.5 139.802 564.546 140.139 564.634L109.949 588.703L79.9358 564.585C80.2128 564.528 80.4948 564.499 80.7776 564.499H139.107ZM139.107 614.469H80.7776C79.673 614.468 78.614 614.029 77.833 613.248C77.0519 612.468 76.6125 611.409 76.6113 610.305V569.037L108.202 594.424C108.694 594.819 109.306 595.035 109.937 595.036C110.568 595.038 111.181 594.824 111.674 594.43L143.273 569.237V610.305C143.272 611.409 142.833 612.468 142.051 613.248C141.27 614.029 140.211 614.468 139.107 614.469Z" fill="white"/>
<path d="M309.805 405.038L250.313 408.862L234.356 352.409L286.645 340.162L309.805 405.038Z" fill="#2F2E41"/>
<path d="M390.926 478.965L407.217 479.099C408.865 479.113 410.497 478.767 411.997 478.085C413.498 477.404 414.832 476.403 415.907 475.154C416.981 473.904 417.77 472.435 418.218 470.85C418.666 469.264 418.762 467.6 418.5 465.973C418.219 464.222 417.53 462.562 416.489 461.126C415.449 459.69 414.085 458.518 412.509 457.705C410.932 456.891 409.187 456.459 407.413 456.443C405.638 456.427 403.885 456.828 402.294 457.612L386.931 465.189L334.385 476.901L311.874 453.897L298.943 475.184L329.32 498.641L390.926 478.965Z" fill="#FFB8B8"/>
<path d="M387.872 647.19L368.679 650.879C355.568 609.574 341.364 570.458 341.365 540.205C322.811 560.843 299.804 572.651 272.711 576.359L275.664 530.613L297.81 518.808L331.705 503.172C334.673 501.803 337.874 501.012 341.138 500.84C347.484 500.506 353.729 502.53 358.671 506.523C363.612 510.515 366.902 516.194 367.906 522.465L387.872 647.19Z" fill="#FFB8B8"/>
<path d="M384.919 628.744C384.919 628.744 386.76 627.965 394.11 637.578C394.11 637.578 417.581 641.946 413.699 652.525C409.818 663.103 379.638 662.771 376.77 661.154C373.902 659.538 351.075 659.572 352.653 652.384C354.231 645.197 363.324 637.165 363.324 637.165C363.324 637.165 367.505 645.631 374.003 645.667C382.704 645.714 385.657 638.336 384.181 630.958C384.167 630.889 384.975 628.789 384.919 628.744Z" fill="#2F2E41"/>
<path d="M237.227 603.586C237.227 603.586 240.103 611.442 227.156 616.176C227.156 616.176 214.456 640.207 204.261 632.407C194.067 624.607 204.646 591.919 207.375 589.349C210.105 586.779 217.797 561.959 225.082 566.107C232.367 570.255 238.028 582.857 238.028 582.857C238.028 582.857 214.571 590.386 225.667 607.812C225.667 607.812 230.505 608.14 237.227 603.586Z" fill="#2F2E41"/>
<path d="M264.055 395.205C277.406 395.205 288.229 384.388 288.229 371.044C288.229 357.701 277.406 346.884 264.055 346.884C250.705 346.884 239.882 357.701 239.882 371.044C239.882 384.388 250.705 395.205 264.055 395.205Z" fill="#FFB8B8"/>
<path d="M284.891 435.064H242.813L233.955 409.24C249.312 404.555 245.725 391.249 242.813 378.251H284.891C276.734 394.513 266.6 417.527 286.368 421.783L284.891 435.064Z" fill="#FFB8B8"/>
<path d="M295.965 570.825L288.315 576.636C285.025 579.134 281.139 580.73 277.042 581.264C272.945 581.797 268.78 581.251 264.96 579.679C243.049 563.264 225.178 568.183 211.07 592.96C194.147 573.871 192.276 546.224 207.379 517.701L291.166 519.546L308.145 514.381L295.965 570.825Z" fill="#2F2E41"/>
<path d="M268.06 656.311C263.259 657.787 258.091 657.528 253.462 655.579C248.833 653.629 245.038 650.114 242.742 645.649C235.212 639.02 228.858 629.53 223.348 617.988C219.394 609.522 215.999 600.807 213.185 591.897C209.372 580.127 215.747 567.268 227.614 563.746C227.967 563.642 228.324 563.543 228.686 563.45C244.527 559.385 260.795 568.517 266.21 583.942L281.956 628.794C282.909 631.51 283.304 634.39 283.117 637.262C282.93 640.134 282.165 642.939 280.868 645.508C279.57 648.078 277.767 650.359 275.566 652.215C273.366 654.071 270.813 655.464 268.06 656.311Z" fill="#FFB8B8"/>
<path opacity="0.2" d="M220.667 612.881C220.667 612.881 239.122 633.54 242.813 645.346L220.667 612.881Z" fill="black"/>
<path d="M149.089 515.382L142.913 530.449C142.288 531.974 142.003 533.616 142.078 535.262C142.154 536.908 142.587 538.518 143.349 539.979C144.111 541.44 145.182 542.718 146.489 543.722C147.795 544.727 149.305 545.435 150.913 545.797C152.644 546.186 154.442 546.163 156.163 545.731C157.884 545.299 159.479 544.469 160.82 543.308C162.161 542.148 163.211 540.688 163.885 539.048C164.559 537.408 164.838 535.632 164.701 533.864L163.37 516.793L172.012 463.683L201.744 451.339L186.775 431.432L153.699 450.906L149.089 515.382Z" fill="#FFB8B8"/>
<path d="M296.703 517.701C275.492 553.31 241.38 547.061 205.164 519.177C220.438 507.763 211.07 474.907 197.782 472.693C184.041 470.404 182.389 442.319 177.112 428.424L241.336 404.813L258.685 418.463L276.033 414.405L283.145 416.927C287.773 418.569 291.788 421.588 294.649 425.578C297.51 429.568 299.079 434.338 299.146 439.247C284.572 460.291 273.783 482.741 296.703 517.701Z" fill="#6C63FF"/>
<path d="M304.823 488.926C304.823 488.926 301.554 472.08 290.823 477.367C280.093 482.654 279.354 467.897 279.354 467.897L287.844 418.832L322.54 455.723L304.823 488.926Z" fill="#6C63FF"/>
<path d="M286.634 339.95C286.634 339.95 298.885 344.541 299.056 360.842C299.049 363.584 298.659 366.313 297.896 368.947C297.073 371.936 296.376 378.429 301.658 387.14C305.11 392.794 308.225 398.648 310.985 404.669L297.134 405.882L295.049 382.932C294.038 371.806 291.393 360.889 287.2 350.532L287.113 350.316C287.113 350.316 280.666 361.289 268.603 360.843L273.071 356.696C273.071 356.696 257.907 362.251 249.678 363.32C248.739 363.442 247.852 363.818 247.11 364.408C246.369 364.997 245.803 365.777 245.473 366.664C245.142 367.551 245.06 368.511 245.236 369.441C245.411 370.372 245.837 371.236 246.467 371.942C246.515 371.996 246.564 372.049 246.614 372.103C251.592 377.461 261.486 389.901 255.103 399.152C248.72 408.402 253.795 411.177 253.795 411.177L244.508 405.659L240.295 402.916L240.167 406.361L217.859 402.948C217.859 402.948 211.859 401.863 225.327 387.701C225.327 387.701 228.951 382.141 227.639 377.182C226.55 373.41 226.375 369.433 227.127 365.58C230.621 349.542 243.171 317.863 286.634 339.95Z" fill="#2F2E41"/>
<path d="M727.423 157.315H723.782V57.6703C723.782 42.3752 717.703 27.7065 706.882 16.8912C696.061 6.07596 681.385 0 666.082 0H454.859C439.556 0 424.88 6.07596 414.059 16.8912C403.238 27.7065 397.159 42.3752 397.159 57.6703V604.332C397.159 619.627 403.238 634.296 414.059 645.111C424.88 655.927 439.556 662.003 454.859 662.003H666.081C681.384 662.003 696.06 655.927 706.881 645.111C717.702 634.296 723.781 619.627 723.781 604.332V228.244H727.422L727.423 157.315Z" fill="#3F3D56"/>
<path d="M668.41 15.0025H640.838C642.107 18.1097 642.592 21.481 642.249 24.8195C641.907 28.1579 640.748 31.3609 638.876 34.1464C637.003 36.9318 634.473 39.2141 631.51 40.7921C628.547 42.3701 625.241 43.1955 621.883 43.1955H500.877C497.519 43.1952 494.214 42.3697 491.251 40.7917C488.288 39.2138 485.759 36.9318 483.886 34.1467C482.014 31.3617 480.855 28.1591 480.513 24.8212C480.17 21.4832 480.654 18.1122 481.922 15.0052H456.166C444.738 15.0052 433.777 19.5428 425.696 27.6199C417.615 35.6969 413.075 46.6516 413.075 58.0742V603.931C413.075 615.354 417.615 626.308 425.696 634.385C433.777 642.462 444.738 647 456.166 647H668.402C679.83 647 690.791 642.462 698.872 634.385C706.953 626.308 711.493 615.354 711.493 603.931V603.931V58.0714C711.493 46.6488 706.953 35.6941 698.872 27.6171C690.791 19.5401 679.83 15.0024 668.402 15.0024H668.41V15.0025Z" fill="white"/>
<path d="M562.653 616.496C575.721 616.496 586.315 605.907 586.315 592.845C586.315 579.784 575.721 569.195 562.653 569.195C549.584 569.195 538.99 579.784 538.99 592.845C538.99 605.907 549.584 616.496 562.653 616.496Z" fill="#E6E6E6"/>
<path d="M466.658 374.128C464.422 374.128 462.602 376.204 462.602 378.756C462.602 381.307 464.422 383.384 466.658 383.384H657.909C660.146 383.384 661.966 381.307 661.966 378.756C661.966 376.204 660.146 374.128 657.909 374.128H466.658Z" fill="#E6E6E6"/>
<path d="M466.658 483.283C464.422 483.283 462.602 485.359 462.602 487.911C462.602 490.463 464.422 492.539 466.658 492.539H657.909C660.146 492.539 661.966 490.463 661.966 487.911C661.966 485.359 660.146 483.283 657.909 483.283H466.658Z" fill="#E6E6E6"/>
<path d="M466.658 401.896C464.422 401.896 462.602 403.973 462.602 406.524C462.602 409.076 464.422 411.152 466.658 411.152H548.954C551.191 411.152 553.011 409.076 553.011 406.524C553.011 403.973 551.191 401.896 548.954 401.896H466.658Z" fill="#E6E6E6"/>
<path d="M466.658 428.365C464.422 428.365 462.602 430.441 462.602 432.993C462.602 435.545 464.422 437.621 466.658 437.621H657.909C660.146 437.621 661.966 435.545 661.966 432.993C661.966 430.441 660.146 428.365 657.909 428.365H466.658Z" fill="#E6E6E6"/>
<path d="M466.658 456.134C464.422 456.134 462.602 458.21 462.602 460.762C462.602 463.313 464.422 465.39 466.658 465.39H548.954C551.191 465.39 553.011 463.313 553.011 460.762C553.011 458.21 551.191 456.134 548.954 456.134H466.658Z" fill="#E6E6E6"/>
<path d="M502.763 163.394H621.817C623.132 163.395 624.393 163.918 625.323 164.847C626.253 165.777 626.776 167.037 626.777 168.352V292.276C626.776 293.591 626.253 294.851 625.323 295.78C624.393 296.71 623.132 297.233 621.817 297.234H502.763C501.448 297.233 500.187 296.71 499.257 295.78C498.327 294.851 497.804 293.591 497.803 292.276V168.352C497.804 167.037 498.327 165.777 499.257 164.847C500.187 163.918 501.448 163.395 502.763 163.394Z" fill="#6C63FF"/>
<path d="M596.449 271.679C596.891 271.68 597.33 271.593 597.739 271.424C598.148 271.255 598.52 271.008 598.834 270.695C599.147 270.382 599.396 270.011 599.565 269.602C599.735 269.193 599.822 268.755 599.822 268.313C599.822 267.87 599.735 267.432 599.565 267.023C599.396 266.615 599.147 266.243 598.834 265.931C598.52 265.618 598.148 265.37 597.739 265.201C597.33 265.033 596.891 264.946 596.449 264.947H528.131C527.688 264.946 527.25 265.033 526.841 265.201C526.431 265.37 526.059 265.618 525.746 265.931C525.433 266.243 525.184 266.615 525.015 267.023C524.845 267.432 524.758 267.87 524.758 268.313C524.758 268.755 524.845 269.193 525.015 269.602C525.184 270.011 525.433 270.382 525.746 270.695C526.059 271.008 526.431 271.255 526.841 271.424C527.25 271.593 527.688 271.68 528.131 271.679H596.449Z" fill="white"/>
<path d="M596.449 251.847C597.342 251.847 598.198 251.492 598.83 250.861C599.462 250.23 599.816 249.373 599.816 248.481C599.816 247.588 599.462 246.732 598.83 246.101C598.198 245.469 597.342 245.115 596.449 245.115H528.131C527.689 245.115 527.251 245.202 526.842 245.371C526.434 245.54 526.062 245.788 525.75 246.101C525.437 246.413 525.189 246.784 525.02 247.193C524.85 247.601 524.763 248.039 524.763 248.481C524.763 248.923 524.85 249.36 525.02 249.769C525.189 250.177 525.437 250.548 525.75 250.861C526.062 251.173 526.434 251.421 526.842 251.591C527.251 251.76 527.689 251.847 528.131 251.847H596.449Z" fill="white"/>
<path d="M562.29 188.949C566.483 188.949 570.581 190.192 574.067 192.52C577.553 194.848 580.27 198.157 581.875 202.029C583.479 205.9 583.899 210.16 583.081 214.27C582.263 218.38 580.244 222.155 577.28 225.119C574.315 228.082 570.538 230.1 566.425 230.917C562.313 231.735 558.051 231.315 554.178 229.711C550.304 228.108 546.993 225.392 544.664 221.908C542.335 218.424 541.091 214.327 541.091 210.137C541.098 204.519 543.333 199.134 547.307 195.162C551.281 191.19 556.67 188.956 562.29 188.949Z" fill="white"/>
</svg>
