<svg width="892" height="529" viewBox="0 0 892 529" fill="none" xmlns="http://www.w3.org/2000/svg">
<g clip-path="url(#clip0)">
<path opacity="0.2" d="M130.356 0.0604843C123.416 -0.138323 116.304 0.0604776 109.795 2.06584C92.0844 7.52871 83.6896 25.4041 86.419 40.8505C89.1484 56.297 100.376 69.7554 112.025 82.0555C123.675 94.3556 136.297 106.517 142.686 121.22C145.871 128.559 147.361 136.779 144.124 144.109C139.13 155.407 124.071 161.717 109.614 163.03C95.1582 164.344 80.6417 161.786 66.1338 160.93C60.0465 160.576 53.787 160.532 48.0527 162.183C41.7588 163.981 36.5153 167.655 31.6936 171.484C12.8807 186.507 -2.17826 207.001 0.258381 228.533C3.01359 252.935 27.5866 272.219 54.5016 282.565C63.413 286.023 72.841 288.772 80.6848 293.664C101.349 306.569 105.99 330.772 103.932 352.131C101.874 373.49 94.8655 394.874 98.7658 416.043C103.355 440.669 123.666 462.918 151.063 473.308C175.473 482.566 206.021 481.952 227.693 468.891C238.257 462.512 246.247 453.652 253.195 444.49C263.513 430.959 272.036 416.141 278.552 400.406C281.574 393.068 284.415 385.176 291.467 380.076C295.772 376.938 301.351 375.184 306.87 373.818C323.505 369.704 341.026 368.58 357.816 364.915C374.606 361.25 391.499 354.395 400.625 342.208C413.54 324.92 407.513 302.775 407.573 282.444C407.677 236.062 441.247 194.546 453.637 149.33C457.684 134.558 459.191 118.212 450.15 105.031C444.011 96.0844 433.653 89.6274 422.77 84.64C398.826 73.671 371.609 68.7873 344.841 64.0332C307.637 57.4293 262.46 56.5736 233.625 35.2061C205.952 14.6944 168.094 0.0604843 130.356 0.0604843Z" fill="#6C63FF"/>
<path d="M491.633 529C712.75 529 892 480.811 892 421.368C892 361.924 712.75 313.735 491.633 313.735C270.517 313.735 91.2666 361.924 91.2666 421.368C91.2666 480.811 270.517 529 491.633 529Z" fill="#F5F5F5"/>
<path d="M824.136 161.518C824.136 161.518 793.286 192.489 810.704 238.448C828.122 284.407 780.845 360.835 780.845 360.835C780.845 360.835 781.353 360.757 782.291 360.593C845.652 349.356 877.139 276.61 841.907 222.56C828.811 202.472 818.057 178.926 824.136 161.518Z" fill="#6C63FF"/>
<path d="M824.136 161.518C824.136 161.518 806.718 199.481 824.136 230.452C841.554 261.423 827.124 348.345 780.845 360.835" stroke="#535461" stroke-width="2" stroke-miterlimit="10"/>
<path d="M879.085 286.792C879.085 286.792 843.879 281.165 840.676 312.836C837.473 344.507 772.983 348.898 772.983 348.898L774.189 349.702C827.433 384.787 878.37 372.055 870.621 325.499C867.806 308.142 868.038 290.743 879.085 286.792Z" fill="#6C63FF"/>
<path opacity="0.2" d="M879.085 286.792C879.085 286.792 843.879 281.165 840.676 312.836C837.473 344.507 772.983 348.898 772.983 348.898L774.189 349.702C827.433 384.787 878.37 372.055 870.621 325.499C867.806 308.142 868.038 290.743 879.085 286.792Z" fill="#F5F5F5"/>
<path d="M879.085 286.792C879.085 286.792 851.757 292.843 854.004 317.754C856.251 342.666 813.425 372.599 772.983 348.872" stroke="#535461" stroke-width="2" stroke-miterlimit="10"/>
<path d="M797.608 362.97H742.297C743.57 360.4 744.23 357.568 744.226 354.698V101.815C744.226 96.8841 742.275 92.1549 738.802 88.6681C735.328 85.1813 730.618 83.2224 725.706 83.2224H297.494C295.061 83.2213 292.652 83.7014 290.404 84.6352C288.156 85.5691 286.113 86.9385 284.393 88.6651C282.672 90.3917 281.307 92.4417 280.376 94.6981C279.445 96.9544 278.965 99.3728 278.965 101.815V354.707C278.961 357.577 279.621 360.409 280.894 362.979H223.629C222.329 362.979 221.083 363.497 220.164 364.419C219.246 365.342 218.729 366.593 218.729 367.897V371.865C218.736 379.155 221.626 386.144 226.763 391.296C231.9 396.449 238.865 399.343 246.127 399.343H775.11C782.376 399.343 789.345 396.445 794.483 391.287C799.621 386.129 802.507 379.133 802.507 371.839V367.871C802.503 366.57 801.985 365.323 801.066 364.404C800.148 363.486 798.905 362.97 797.608 362.97ZM456.745 378.702L452.027 373.299H569.744L564.491 378.71L456.745 378.702Z" fill="url(#paint0_linear)"/>
<path d="M718.913 86.8009H304.253C293.192 86.8009 284.226 95.8024 284.226 106.906V350.203C284.226 361.307 293.192 370.309 304.253 370.309H718.913C729.973 370.309 738.94 361.307 738.94 350.203V106.906C738.94 95.8024 729.973 86.8009 718.913 86.8009Z" fill="#535461"/>
<path d="M728.4 128.127H293.792V359.737H728.4V128.127Z" fill="#13243A"/>
<path d="M511.101 111.79C513.217 111.79 514.932 110.068 514.932 107.944C514.932 105.819 513.217 104.097 511.101 104.097C508.984 104.097 507.269 105.819 507.269 107.944C507.269 110.068 508.984 111.79 511.101 111.79Z" fill="white"/>
<path d="M578.207 360.213L563.269 375.59H457.968L444.476 360.213H230.138C228.868 360.213 227.65 360.719 226.753 361.62C225.855 362.522 225.351 363.744 225.351 365.019V368.891C225.351 376.021 228.172 382.858 233.193 387.9C238.215 392.941 245.026 395.773 252.128 395.773H769.118C776.219 395.773 783.03 392.941 788.052 387.9C793.074 382.858 795.895 376.021 795.895 368.891V365.019C795.895 363.744 795.39 362.522 794.493 361.62C793.595 360.719 792.377 360.213 791.108 360.213H578.207Z" fill="#535461"/>
<path d="M429.133 136.269H245.799C241.346 136.265 237.072 138.036 233.919 141.194C230.766 144.351 228.991 148.636 228.984 153.108V408.099C228.991 412.57 230.766 416.856 233.919 420.013C237.072 423.171 241.346 424.942 245.799 424.937H429.133C433.586 424.942 437.86 423.171 441.013 420.013C444.166 416.856 445.941 412.57 445.948 408.099V153.108C445.941 148.636 444.166 144.351 441.013 141.194C437.86 138.036 433.586 136.265 429.133 136.269Z" fill="url(#paint1_linear)"/>
<path d="M426.145 139.727H248.779C239.268 139.727 231.559 147.467 231.559 157.014V405.091C231.559 414.639 239.268 422.379 248.779 422.379H426.145C435.656 422.379 443.366 414.639 443.366 405.091V157.014C443.366 147.467 435.656 139.727 426.145 139.727Z" fill="#535461"/>
<path d="M432.603 166.462H242.321V395.644H432.603V166.462Z" fill="#13243A"/>
<path d="M336.601 155.286C338.028 155.286 339.184 154.125 339.184 152.692C339.184 151.26 338.028 150.099 336.601 150.099C335.175 150.099 334.018 151.26 334.018 152.692C334.018 154.125 335.175 155.286 336.601 155.286Z" fill="white"/>
<path d="M336.601 416.328C340.881 416.328 344.35 412.845 344.35 408.549C344.35 404.252 340.881 400.769 336.601 400.769C332.321 400.769 328.852 404.252 328.852 408.549C328.852 412.845 332.321 416.328 336.601 416.328Z" fill="white"/>
<path d="M289.392 222.707H195.258C194.036 222.705 192.825 222.944 191.695 223.412C190.565 223.879 189.538 224.566 188.672 225.432C187.806 226.298 187.118 227.327 186.649 228.459C186.179 229.592 185.936 230.807 185.934 232.034V438.984C185.936 440.211 186.179 441.425 186.649 442.558C187.118 443.691 187.806 444.72 188.672 445.586C189.538 446.452 190.565 447.138 191.695 447.606C192.825 448.073 194.036 448.313 195.258 448.31H289.392C290.614 448.313 291.825 448.073 292.955 447.606C294.085 447.138 295.112 446.452 295.978 445.586C296.844 444.72 297.532 443.691 298.001 442.558C298.471 441.425 298.714 440.211 298.716 438.984V232.034C298.714 230.807 298.471 229.592 298.001 228.459C297.532 227.327 296.844 226.298 295.978 225.432C295.112 224.566 294.085 223.879 292.955 223.412C291.825 222.944 290.614 222.705 289.392 222.707Z" fill="url(#paint2_linear)"/>
<path d="M288.385 224.436H196.257C191.026 224.436 186.786 228.693 186.786 233.944V437.938C186.786 443.189 191.026 447.446 196.257 447.446H288.385C293.615 447.446 297.856 443.189 297.856 437.938V233.944C297.856 228.693 293.615 224.436 288.385 224.436Z" fill="#535461"/>
<path d="M289.676 245.181H194.966V426.701H289.676V245.181Z" fill="#13243A"/>
<path d="M231.128 235.673C231.604 235.673 231.989 235.286 231.989 234.808C231.989 234.331 231.604 233.944 231.128 233.944C230.653 233.944 230.267 234.331 230.267 234.808C230.267 235.286 230.653 235.673 231.128 235.673Z" fill="white"/>
<path d="M253.514 233.944H236.294C235.819 233.944 235.433 234.331 235.433 234.808C235.433 235.286 235.819 235.673 236.294 235.673H253.514C253.99 235.673 254.375 235.286 254.375 234.808C254.375 234.331 253.99 233.944 253.514 233.944Z" fill="white"/>
<path d="M241.89 441.395C245.219 441.395 247.917 438.686 247.917 435.344C247.917 432.003 245.219 429.294 241.89 429.294C238.562 429.294 235.863 432.003 235.863 435.344C235.863 438.686 238.562 441.395 241.89 441.395Z" fill="white"/>
<path d="M175.412 463.523C175.412 463.523 163.995 424.626 177.556 395.981C183.328 384.007 185.075 370.476 182.532 357.421C181.276 351.236 179.457 345.181 177.1 339.329" stroke="#535461" stroke-width="2" stroke-miterlimit="10"/>
<path d="M185.503 321.229C185.503 326.001 176.893 339.822 176.893 339.822C176.893 339.822 168.283 325.992 168.283 321.229C168.283 318.937 169.19 316.738 170.805 315.117C172.42 313.496 174.61 312.585 176.893 312.585C179.177 312.585 181.367 313.496 182.981 315.117C184.596 316.738 185.503 318.937 185.503 321.229Z" fill="#6C63FF"/>
<path d="M199.753 347.645C197.17 351.647 182.464 358.562 182.464 358.562C182.464 358.562 182.731 342.26 185.314 338.258C185.901 337.249 186.686 336.371 187.621 335.675C188.556 334.98 189.622 334.482 190.754 334.212C191.886 333.942 193.061 333.904 194.208 334.103C195.355 334.301 196.45 334.731 197.426 335.366C198.403 336.001 199.241 336.828 199.891 337.797C200.54 338.767 200.987 339.858 201.205 341.006C201.422 342.153 201.405 343.333 201.156 344.475C200.906 345.616 200.429 346.694 199.753 347.645Z" fill="#6C63FF"/>
<path d="M199.098 392.774C194.854 394.918 178.684 393.439 178.684 393.439C178.684 393.439 187.113 379.506 191.349 377.362C193.372 376.444 195.67 376.347 197.763 377.089C199.856 377.831 201.582 379.356 202.582 381.346C203.582 383.335 203.777 385.636 203.128 387.767C202.479 389.897 201.036 391.694 199.098 392.782V392.774Z" fill="#6C63FF"/>
<path d="M190.971 426.822C187.148 429.657 170.961 430.936 170.961 430.936C170.961 430.936 176.919 415.775 180.742 412.94C182.581 411.708 184.822 411.234 187.001 411.615C189.179 411.997 191.127 413.205 192.442 414.99C193.757 416.774 194.338 418.999 194.064 421.201C193.79 423.404 192.682 425.417 190.971 426.822Z" fill="#6C63FF"/>
<path d="M164.374 359.487C167.818 362.806 183.652 366.255 183.652 366.255C183.652 366.255 179.769 350.428 176.359 347.109C175.563 346.255 174.602 345.573 173.536 345.103C172.469 344.633 171.319 344.386 170.154 344.375C168.989 344.365 167.834 344.592 166.76 345.042C165.685 345.492 164.712 346.157 163.9 346.996C163.089 347.835 162.455 348.83 162.038 349.922C161.621 351.013 161.428 352.179 161.473 353.347C161.517 354.516 161.797 355.663 162.296 356.72C162.794 357.777 163.501 358.721 164.374 359.495V359.487Z" fill="#6C63FF"/>
<path d="M155.368 399.421C159.613 401.565 175.783 400.086 175.783 400.086C175.783 400.086 167.353 386.153 163.117 384.009C162.103 383.44 160.985 383.082 159.83 382.958C158.675 382.834 157.507 382.945 156.396 383.286C155.285 383.628 154.254 384.191 153.366 384.942C152.477 385.694 151.749 386.618 151.226 387.659C150.703 388.7 150.395 389.837 150.321 391.001C150.247 392.165 150.408 393.332 150.795 394.432C151.182 395.532 151.787 396.541 152.573 397.4C153.358 398.259 154.309 398.949 155.368 399.43V399.421Z" fill="#6C63FF"/>
<path d="M151.924 439.442C155.747 442.277 171.934 443.556 171.934 443.556C171.934 443.556 165.976 428.395 162.153 425.56C160.313 424.328 158.072 423.853 155.894 424.235C153.716 424.617 151.767 425.825 150.452 427.61C149.137 429.394 148.557 431.618 148.831 433.821C149.105 436.024 150.212 438.036 151.924 439.442Z" fill="#6C63FF"/>
<path d="M856.699 339.787C847.168 328.179 835.622 314.841 837.24 299.395C838.549 286.887 835.415 275.322 836.035 262.771C836.896 244.939 833.331 230.979 820.537 219.552C813.063 212.871 800.57 207.624 796.851 208.964C789.481 211.609 781.439 210.597 773.853 212.421C768.093 213.77 764.262 215.879 761.885 218.472C757.107 222.794 757.029 228.844 759.208 235.284C757.307 238.779 756.159 242.637 755.84 246.607C755.52 250.576 756.036 254.569 757.354 258.325C758.672 262.082 760.762 265.518 763.489 268.41C766.216 271.303 769.518 273.587 773.182 275.115C767.869 277.345 763.28 282.479 761.489 292.904C760.244 300.062 758.363 307.095 755.867 313.917C754.745 314.443 753.595 314.908 752.423 315.308C752.681 315.412 752.948 315.481 753.206 315.576C752.647 315.792 752.096 316.008 751.484 316.199C752.503 316.598 753.554 316.904 754.627 317.115C747.739 334.584 739.129 345.406 739.129 345.406C739.129 345.406 723.071 348.967 716.829 342.735C716.829 342.735 717.845 343.928 719.223 345.717C713.118 343.176 703.096 339.027 694.529 335.613C688.313 333.132 686.72 335.613 686.78 339.07C685.263 339.261 683.799 339.755 682.475 340.522C680.639 339.336 678.713 338.295 676.715 337.41C673.15 336.546 661.553 330.288 649.955 351.647C643.205 364.068 625.898 386.74 612.596 403.509C586.723 415.455 553.04 430.582 540.521 434.385H532.497C531.446 432.656 530.714 431.567 530.714 431.567L530.095 431.982L529.828 431.567C529.828 431.567 514.071 442.519 498.074 442.605C495.798 442.574 493.534 442.284 491.324 441.741C483.971 439.882 478.787 439.053 475.085 439.148C470.703 439.07 468.197 440.116 466.682 442.087C466.478 442.345 466.291 442.617 466.122 442.899C465.952 443.179 465.797 443.468 465.657 443.764C465.519 444.075 465.381 444.403 465.261 444.74C465.211 445.041 465.23 445.349 465.317 445.641C465.403 445.933 465.555 446.201 465.76 446.426C465.975 446.728 466.208 447.017 466.458 447.29L466.905 447.774C468.92 449.866 472.588 452.641 477.151 455.735C478.469 456.6 479.864 457.55 481.319 458.493L484.082 460.221L486.554 461.769L487.544 462.382L488.646 463.057L490.618 464.258L491.788 464.967L494.001 466.289L495.792 467.352C500.476 470.127 505.143 472.815 509.353 475.201L512.298 476.964L512.582 477.12L514.476 478.183L517.748 480.007L519.995 481.252L521.045 481.831L522.173 482.453L522.397 482.574L524.36 483.646C524.764 483.714 525.178 483.694 525.573 483.586C525.969 483.479 526.336 483.287 526.651 483.024C527.219 480.603 528.605 475.417 530.095 475.019C531.584 474.622 538.033 463.307 539.85 455.735H557.259C560.689 455.441 564.094 454.915 567.453 454.162C562.959 457.377 558.508 459.4 555.046 458.536C547.728 456.712 540.797 461.189 540.099 465.606C540.099 465.701 540.039 465.788 540.013 465.883C539.987 465.978 539.97 466.064 539.953 466.151C539.936 466.237 539.901 466.367 539.884 466.479C539.867 466.592 539.884 466.661 539.884 466.756C539.884 466.851 539.884 466.972 539.884 467.084C539.884 467.197 539.884 467.266 539.884 467.352C539.884 467.439 539.884 467.577 539.884 467.69C539.884 467.802 539.884 467.862 539.884 467.949C539.884 468.035 539.936 468.182 539.97 468.303C540.005 468.424 539.97 468.459 540.031 468.528C540.085 468.684 540.148 468.837 540.22 468.986L540.263 469.098C540.36 469.287 540.469 469.469 540.59 469.643L540.728 469.825C540.814 469.946 540.909 470.067 541.012 470.179L541.21 470.378C541.313 470.481 541.425 470.585 541.537 470.689L541.778 470.888L542.166 471.173L542.45 471.363L542.915 471.64L543.225 471.804L543.81 472.081L544.103 472.21C544.413 472.34 544.74 472.461 545.093 472.573C545.653 472.755 546.316 472.945 547.065 473.135L547.814 473.317L548.907 473.567L549.484 473.697C550.231 473.858 551.023 474.02 551.861 474.181L553.023 474.397L553.97 474.57L556.149 474.95C557.509 475.184 558.93 475.417 560.454 475.642L564.207 476.212L569.098 476.912L570.183 477.059L571.905 477.301L574.428 477.639L576.15 477.863L580.618 478.434L582.013 478.607L584.829 478.952C588.531 479.402 592.113 479.817 595.41 480.188L599.225 480.621L601.153 480.837L602.014 480.923L604.322 481.174L605.605 481.312L607.189 481.476L609.419 481.71H609.66L611.089 481.857C611.268 481.876 611.449 481.858 611.621 481.803C611.793 481.748 611.951 481.658 612.086 481.539C612.221 481.419 612.33 481.273 612.406 481.109C612.482 480.945 612.523 480.767 612.527 480.586C612.527 480.543 612.527 480.491 612.527 480.439C612.658 480.239 612.73 480.005 612.734 479.765C612.771 477.633 613.04 475.511 613.534 473.438C613.629 473.083 613.741 472.72 613.862 472.357L613.999 471.942C614.154 471.501 614.309 471.078 614.49 470.603C614.62 470.28 614.732 469.951 614.826 469.617C614.826 469.513 614.886 469.41 614.921 469.297C614.955 469.185 615.007 468.943 615.041 468.761C616.832 462.616 614.671 451.154 614.051 446.651C613.852 445.212 613.524 443.794 613.069 442.415C613.181 442.426 613.294 442.426 613.405 442.415C614.33 442.074 615.2 441.599 615.988 441.006C629.144 436.295 640.234 430.91 643.738 425.517C649.414 424.013 655.441 424.646 660.683 427.297C667.494 430.694 719.016 447.575 743.004 455.372C747.309 459.098 750.684 461.276 752.552 461.112C752.552 461.112 783.092 466.073 795.37 456.392C796.463 457.153 797.152 457.559 797.152 457.559C797.152 457.559 814.992 448.665 817.67 437.091C818.531 433.339 819.314 427.807 820.115 421.687C824.254 417.501 826.58 411.845 826.59 405.947C827.15 386.516 834.649 364.319 840.211 344.576C846.961 345.112 849.57 343.833 855.761 340.764L855.485 340.41C855.924 340.15 856.312 339.978 856.699 339.787ZM754.421 368.891L750.976 367.741C752.132 366.193 753.127 364.531 753.947 362.78L754.421 368.891ZM735.229 377.068L755.893 389.515L756.074 392.048C755.822 393.975 755.88 395.93 756.246 397.839C747.136 389.714 736.477 379.851 735.22 377.059L735.229 377.068ZM726.791 358.916C724.535 357.983 722.667 357.135 721.384 356.435C723.106 356.556 724.742 356.66 726.171 356.738C726.453 357.44 726.661 358.17 726.791 358.916ZM671.446 379.203C671.446 379.203 675.01 371.199 683.043 384.545C684.292 386.619 686.591 389.921 689.63 394.01L666.245 390.872C669 386.585 670.851 382.6 671.446 379.212V379.203Z" fill="url(#paint3_linear)"/>
<path d="M722.812 347.048C722.812 347.048 706.453 340.133 693.538 334.947C680.623 329.761 688.372 347.048 688.372 347.048C688.372 347.048 709.897 353.099 709.897 353.963C709.897 354.828 727.979 355.692 727.979 355.692L722.812 347.048Z" fill="#F7C4A7"/>
<path opacity="0.05" d="M722.812 347.048C722.812 347.048 706.453 340.133 693.538 334.947C680.623 329.761 688.372 347.048 688.372 347.048C688.372 347.048 709.897 353.099 709.897 353.963C709.897 354.828 727.979 355.692 727.979 355.692L722.812 347.048Z" fill="black"/>
<path d="M792.554 278.762C792.554 278.762 763.28 263.203 758.114 293.457C752.948 323.71 736.589 344.455 736.589 344.455C736.589 344.455 721.091 347.913 715.064 341.862C715.064 341.862 729.701 359.15 722.813 360.878C722.813 360.878 738.311 372.115 745.199 368.658C752.087 365.2 757.253 341.862 759.836 335.811C762.419 329.761 771.89 277.033 792.554 278.762Z" fill="#575988"/>
<path opacity="0.1" d="M792.554 278.762C792.554 278.762 763.28 263.203 758.114 293.457C752.948 323.71 736.589 344.455 736.589 344.455C736.589 344.455 721.091 347.913 715.064 341.862C715.064 341.862 729.701 359.15 722.813 360.878C722.813 360.878 738.311 372.115 745.199 368.658C752.087 365.2 757.253 341.862 759.836 335.811C762.419 329.761 771.89 277.033 792.554 278.762Z" fill="black"/>
<path d="M776.195 268.39C776.195 268.39 794.276 289.135 795.137 306.422C795.998 323.71 815.801 288.27 817.523 287.406C819.245 286.542 800.303 257.153 798.581 247.645C796.859 238.136 776.195 268.39 776.195 268.39Z" fill="#F7C4A7"/>
<path d="M788.68 277.25L777.271 287.622L782.653 309.448L797.29 295.618L795.568 281.788L788.68 277.25Z" fill="#F7C4A7"/>
<path d="M550.612 430.893H530.809L538.558 449.909L557.5 444.723L550.612 430.893Z" fill="#F7C4A7"/>
<path opacity="0.1" d="M535.389 428.153C535.389 428.153 514.88 442.493 497.359 438.033C479.837 433.572 475.076 435.241 473.036 440.997C471.15 446.296 521.975 474.319 530.077 478.745C530.203 478.814 530.343 478.853 530.486 478.859C530.629 478.865 530.771 478.837 530.902 478.779C531.033 478.72 531.149 478.632 531.24 478.521C531.331 478.41 531.396 478.28 531.429 478.14C531.98 475.789 533.314 470.749 534.744 470.36C536.603 469.859 545.076 453.937 544.611 447.679C544.146 441.421 535.389 428.153 535.389 428.153Z" fill="black"/>
<path d="M534.528 428.153C534.528 428.153 514.019 442.493 496.498 438.033C478.976 433.572 474.215 435.241 472.174 440.997C470.289 446.296 521.114 474.319 529.216 478.745C529.341 478.814 529.481 478.853 529.624 478.859C529.768 478.865 529.91 478.837 530.041 478.779C530.172 478.72 530.287 478.632 530.379 478.521C530.47 478.41 530.535 478.28 530.567 478.14C531.119 475.789 532.453 470.749 533.882 470.36C535.742 469.859 544.214 453.937 543.75 447.679C543.285 441.421 534.528 428.153 534.528 428.153Z" fill="#F3B5B7"/>
<path d="M703.871 393.725L646.184 385.945C646.184 385.945 552.334 430.893 541.141 431.757L543.724 451.638H560.944C567.832 451.638 634.991 436.944 644.462 422.249C649.941 420.787 655.765 421.402 660.821 423.978C669.431 428.3 752.087 455.096 752.087 455.096L703.871 393.725Z" fill="#575988"/>
<path opacity="0.1" d="M703.871 393.725L646.184 385.945C646.184 385.945 552.334 430.893 541.141 431.757L543.724 451.638H560.944C567.832 451.638 634.991 436.944 644.462 422.249C649.941 420.787 655.765 421.402 660.821 423.978C669.431 428.3 752.087 455.096 752.087 455.096L703.871 393.725Z" fill="black"/>
<path d="M601.411 420.52L591.94 432.622L601.411 437.808L615.188 427.435L601.411 420.52Z" fill="#F7C4A7"/>
<path d="M765.863 406.69C765.863 406.69 734.867 380.05 732.723 375.218C730.579 370.386 679.763 337.54 676.319 336.676C672.875 335.811 661.682 329.761 650.489 350.506C639.295 371.251 597.967 421.385 597.967 421.385C597.967 421.385 610.882 439.537 615.187 438.672C619.492 437.808 667.709 397.182 671.153 377.301C671.153 377.301 674.597 369.522 682.346 382.488C690.095 395.453 740.033 457.689 749.504 456.824C749.504 456.824 786.527 462.875 794.276 448.181C802.025 433.486 765.863 406.69 765.863 406.69Z" fill="#575988"/>
<path d="M783.514 280.059C783.514 280.059 772.751 284.813 771.89 304.694C771.029 324.574 752.087 358.285 752.087 358.285L753.809 398.047C753.809 398.047 774.473 418.792 776.195 431.757C777.917 444.723 792.554 453.367 792.554 453.367C792.554 453.367 809.774 444.723 812.357 433.486C814.94 422.249 816.662 394.589 820.967 384.216C825.272 373.844 822.689 309.015 822.689 309.015L809.774 286.542L802.886 278.762L784.805 299.507C784.805 299.507 774.903 286.109 783.514 280.059Z" fill="#DDDBE2"/>
<path opacity="0.1" d="M758.114 385.081C758.114 385.081 755.531 353.963 763.28 347.048L778.778 302.965C778.778 302.965 784.374 281.788 783.513 280.059C782.652 278.33 763.28 296.914 763.28 296.914L750.365 342.726L753.809 391.132L758.114 385.081Z" fill="black"/>
<path d="M757.253 385.081C757.253 385.081 754.67 353.963 762.419 347.048L777.917 302.965C777.917 302.965 783.944 281.355 783.083 279.627C782.222 277.898 762.419 296.914 762.419 296.914L749.504 342.726L752.948 391.132L757.253 385.081Z" fill="#575988"/>
<path d="M763.28 371.251C763.28 371.251 720.23 357.421 717.647 353.963C715.064 350.506 687.512 328.032 678.041 343.591C668.57 359.149 713.342 363.471 713.342 363.471L758.975 391.131L763.28 371.251Z" fill="#F7C4A7"/>
<path opacity="0.1" d="M603.279 432.544L590.537 430.245C590.537 430.245 569.666 457.084 558.791 454.361C547.917 451.638 537.912 463.385 549.398 467.154C559.773 470.559 604.58 475.322 613.112 476.204C613.285 476.222 613.459 476.203 613.625 476.15C613.79 476.097 613.943 476.01 614.073 475.895C614.203 475.78 614.308 475.638 614.381 475.48C614.455 475.322 614.494 475.151 614.498 474.976C614.564 471.635 615.235 468.334 616.479 465.235C618.777 459.573 616.479 447.411 615.841 442.761C615.49 440.035 614.641 437.398 613.336 434.981L603.279 432.544Z" fill="black"/>
<path d="M603.064 433.382L590.321 431.083C590.321 431.083 569.451 457.922 558.593 455.208C547.736 452.494 537.714 464.232 549.2 468.001C559.575 471.406 604.382 476.169 612.914 477.051C613.087 477.069 613.262 477.051 613.427 476.998C613.592 476.944 613.745 476.857 613.875 476.742C614.005 476.627 614.11 476.486 614.184 476.327C614.257 476.169 614.297 475.998 614.3 475.823C614.342 472.49 614.987 469.192 616.203 466.091C618.502 460.429 616.203 448.267 615.566 443.617C615.215 440.891 614.366 438.253 613.061 435.837L603.064 433.382Z" fill="#F3B5B7"/>
<path opacity="0.1" d="M782.652 278.33C797.869 278.33 810.204 265.946 810.204 250.67C810.204 235.394 797.869 223.01 782.652 223.01C767.436 223.01 755.1 235.394 755.1 250.67C755.1 265.946 767.436 278.33 782.652 278.33Z" fill="black"/>
<path d="M780.07 278.33C795.286 278.33 807.622 265.946 807.622 250.67C807.622 235.394 795.286 223.01 780.07 223.01C764.853 223.01 752.518 235.394 752.518 250.67C752.518 265.946 764.853 278.33 780.07 278.33Z" fill="#F7C4A7"/>
<path d="M807.191 277.898C807.191 277.898 839.909 289.135 839.909 312.473C839.909 335.811 821.828 372.98 820.967 403.233C820.106 433.486 772.751 429.164 772.751 429.164C772.751 429.164 765.863 327.168 772.751 319.388C779.639 311.609 810.635 281.355 807.191 277.898Z" fill="#575988"/>
<path opacity="0.1" d="M801.164 326.303C801.164 326.303 789.11 379.895 760.697 370.386C760.697 370.386 746.06 391.996 756.392 401.504C756.392 401.504 781.361 407.555 797.72 391.132C814.079 374.708 826.133 368.658 828.716 348.777C831.299 328.896 833.021 301.236 824.411 303.829C815.801 306.422 801.164 326.303 801.164 326.303Z" fill="black"/>
<path d="M802.025 325.439C802.025 325.439 789.971 379.03 761.558 369.522C761.558 369.522 746.921 391.132 757.253 400.64C757.253 400.64 782.222 406.69 798.581 390.267C814.94 373.844 826.994 367.793 829.577 347.913C832.16 328.032 833.882 300.372 825.272 302.965C816.662 305.558 802.025 325.439 802.025 325.439Z" fill="#575988"/>
<path d="M616.944 463.307C616.944 463.385 616.892 463.48 616.866 463.549C616.273 465.027 615.821 466.558 615.515 468.122C615.721 467.448 615.962 466.756 616.238 466.065C616.577 465.175 616.814 464.25 616.944 463.307Z" fill="#DDDBE2"/>
<path d="M549.828 465.477C546.281 464.31 544.792 462.391 544.731 460.368C543.268 463.186 544.189 466.35 549.2 467.992C559.575 471.398 604.39 476.161 612.914 477.042C613.088 477.06 613.263 477.042 613.429 476.988C613.595 476.934 613.748 476.847 613.878 476.73C614.009 476.614 614.113 476.472 614.186 476.313C614.259 476.154 614.298 475.981 614.3 475.806C614.306 475.489 614.194 475.181 613.985 474.942C613.777 474.704 613.487 474.553 613.172 474.518C603.822 473.516 560.066 468.831 549.828 465.477Z" fill="#DDDBE2"/>
<path d="M473.363 439.476C473.591 438.839 473.88 438.226 474.224 437.644C473.296 438.586 472.603 439.736 472.201 440.998C470.315 446.296 521.14 474.319 529.242 478.745C529.368 478.814 529.509 478.853 529.652 478.858C529.796 478.864 529.939 478.835 530.07 478.776C530.201 478.716 530.317 478.627 530.407 478.515C530.498 478.404 530.562 478.272 530.594 478.131C530.642 477.932 530.623 477.723 530.541 477.535C530.458 477.348 530.316 477.193 530.138 477.094C521.183 472.176 471.503 444.714 473.363 439.476Z" fill="#DDDBE2"/>
<path d="M535.062 468.848C534.606 468.969 534.158 469.583 533.736 470.421L533.874 470.369C534.253 470.265 534.899 469.505 535.682 468.381C535.515 468.583 535.303 468.743 535.062 468.848Z" fill="#DDDBE2"/>
<path opacity="0.1" d="M776.247 275.019C773.819 280.396 773.311 286.455 771.529 292.091C767.99 303.267 759.113 312.516 748.479 316.086C757.425 319.665 767.981 315.291 774.895 308.03C781.809 300.769 785.864 291.106 789.747 281.701C799.787 288.478 798.564 304.054 801.939 316.181C803.388 321.457 805.947 326.36 809.446 330.558C812.944 334.756 817.298 338.151 822.216 340.513C827.117 342.721 832.444 343.81 837.815 343.7C843.185 343.591 848.464 342.287 853.272 339.882C844.068 328.646 830.964 313.147 832.522 298.142C833.788 285.988 825.1 276.705 825.694 264.509C826.555 247.221 819.96 238.439 807.613 227.34C800.398 220.849 811.755 211.695 802.447 214.375C798.788 215.429 794.931 211.496 791.34 212.793C784.228 215.386 776.462 214.383 769.144 216.112C731.104 225.084 779.794 267.171 776.247 275.019Z" fill="black"/>
<path d="M777.108 274.155C774.68 279.532 774.172 285.591 772.389 291.227C768.851 302.403 759.974 311.652 749.34 315.222C758.286 318.8 768.842 314.427 775.756 307.166C782.67 299.905 786.725 290.241 790.608 280.837C800.647 287.614 799.425 303.19 802.8 315.317C804.249 320.593 806.808 325.496 810.306 329.694C813.804 333.891 818.159 337.286 823.077 339.649C827.977 341.857 833.305 342.945 838.675 342.836C844.046 342.727 849.325 341.423 854.133 339.018C844.929 327.781 832.685 314.876 834.244 299.87C835.51 287.717 833.624 275.227 834.244 263.039C835.105 245.752 826.658 229.052 814.303 217.953C807.088 211.462 795.817 210.632 792.218 211.903C785.106 214.496 777.34 213.493 770.022 215.222C731.965 224.22 780.655 266.307 777.108 274.155Z" fill="#FC6681"/>
</g>
<defs>
<linearGradient id="paint0_linear" x1="510.618" y1="399.36" x2="510.618" y2="83.2138" gradientUnits="userSpaceOnUse">
<stop stop-color="#808080" stop-opacity="0.25"/>
<stop offset="0.54" stop-color="#808080" stop-opacity="0.12"/>
<stop offset="1" stop-color="#808080" stop-opacity="0.1"/>
</linearGradient>
<linearGradient id="paint1_linear" x1="103057" y1="183628" x2="103057" y2="87213" gradientUnits="userSpaceOnUse">
<stop stop-color="#808080" stop-opacity="0.25"/>
<stop offset="0.54" stop-color="#808080" stop-opacity="0.12"/>
<stop offset="1" stop-color="#808080" stop-opacity="0.1"/>
</linearGradient>
<linearGradient id="paint2_linear" x1="41175.7" y1="149719" x2="41175.7" y2="90836.2" gradientUnits="userSpaceOnUse">
<stop stop-color="#808080" stop-opacity="0.25"/>
<stop offset="0.54" stop-color="#808080" stop-opacity="0.12"/>
<stop offset="1" stop-color="#808080" stop-opacity="0.1"/>
</linearGradient>
<linearGradient id="paint3_linear" x1="333085" y1="193667" x2="333085" y2="106195" gradientUnits="userSpaceOnUse">
<stop stop-color="#808080" stop-opacity="0.25"/>
<stop offset="0.54" stop-color="#808080" stop-opacity="0.12"/>
<stop offset="1" stop-color="#808080" stop-opacity="0.1"/>
</linearGradient>
<clipPath id="clip0">
<rect width="892" height="529" fill="white"/>
</clipPath>
</defs>
</svg>
