<svg width="145" height="53" viewBox="0 0 145 53" fill="none" xmlns="http://www.w3.org/2000/svg">
<rect x="96" width="49" height="53" fill="#C0ADD1"/>
<path d="M1.584 22.4H0.624C0.432 22.4 0.296 22.368 0.216 22.304C0.152 22.24 0.12 22.112 0.12 21.92V20.264C0.12 19.928 0.288 19.76 0.624 19.76H1.584C1.76 19.76 1.848 19.672 1.848 19.496V17.216C1.848 16.88 2.024 16.712 2.376 16.712H4.392C4.728 16.712 4.896 16.88 4.896 17.216V19.496C4.896 19.672 4.992 19.76 5.184 19.76H7.056C7.392 19.76 7.56 19.928 7.56 20.264V21.92C7.56 22.096 7.52 22.224 7.44 22.304C7.376 22.368 7.248 22.4 7.056 22.4H5.184C4.992 22.4 4.896 22.488 4.896 22.664V27.968C4.896 28.464 5.008 28.824 5.232 29.048C5.456 29.256 5.824 29.36 6.336 29.36H7.296C7.632 29.36 7.8 29.528 7.8 29.864V31.52C7.8 31.696 7.76 31.824 7.68 31.904C7.616 31.968 7.488 32 7.296 32H5.832C4.568 32 3.584 31.664 2.88 30.992C2.192 30.32 1.848 29.36 1.848 28.112V22.664C1.848 22.488 1.76 22.4 1.584 22.4ZM15.6369 32H13.5009C12.2369 32 11.2609 31.664 10.5729 30.992C9.88494 30.32 9.54094 29.352 9.54094 28.088V23.672C9.54094 22.408 9.88494 21.44 10.5729 20.768C11.2609 20.096 12.2369 19.76 13.5009 19.76H15.6369C16.8849 19.76 17.8529 20.104 18.5409 20.792C19.2449 21.464 19.5969 22.424 19.5969 23.672V28.088C19.5969 29.336 19.2449 30.304 18.5409 30.992C17.8529 31.664 16.8849 32 15.6369 32ZM13.9569 29.384H15.1809C15.6929 29.384 16.0529 29.28 16.2609 29.072C16.4849 28.864 16.5969 28.504 16.5969 27.992V23.768C16.5969 23.256 16.4849 22.896 16.2609 22.688C16.0529 22.48 15.6929 22.376 15.1809 22.376H13.9569C13.4449 22.376 13.0849 22.48 12.8769 22.688C12.6689 22.896 12.5649 23.256 12.5649 23.768V27.992C12.5649 28.504 12.6689 28.864 12.8769 29.072C13.0849 29.28 13.4449 29.384 13.9569 29.384ZM26.4799 32H25.4959C24.2639 32 23.3279 31.664 22.6879 30.992C22.0639 30.32 21.7519 29.352 21.7519 28.088V23.672C21.7519 22.408 22.0639 21.44 22.6879 20.768C23.3279 20.096 24.2639 19.76 25.4959 19.76H26.4799C26.9759 19.76 27.4479 19.872 27.8959 20.096C28.3439 20.304 28.6559 20.624 28.8319 21.056H28.9279V15.632C28.9279 15.296 29.0959 15.128 29.4319 15.128H31.4719C31.8079 15.128 31.9759 15.296 31.9759 15.632V31.496C31.9759 31.832 31.8079 32 31.4719 32H29.4319C29.0959 32 28.9279 31.832 28.9279 31.496V30.704H28.8319C28.6559 31.136 28.3439 31.464 27.8959 31.688C27.4479 31.896 26.9759 32 26.4799 32ZM28.9279 27.536V24.224C28.9279 23.008 28.3759 22.4 27.2719 22.4H26.1919C25.6799 22.4 25.3199 22.512 25.1119 22.736C24.9039 22.944 24.7999 23.304 24.7999 23.816V27.944C24.7999 28.456 24.9039 28.824 25.1119 29.048C25.3199 29.256 25.6799 29.36 26.1919 29.36H27.2719C28.3759 29.36 28.9279 28.752 28.9279 27.536ZM40.4807 32H38.3447C37.0807 32 36.1047 31.664 35.4167 30.992C34.7287 30.32 34.3847 29.352 34.3847 28.088V23.672C34.3847 22.408 34.7287 21.44 35.4167 20.768C36.1047 20.096 37.0807 19.76 38.3447 19.76H40.4807C41.7287 19.76 42.6967 20.104 43.3847 20.792C44.0887 21.464 44.4407 22.424 44.4407 23.672V28.088C44.4407 29.336 44.0887 30.304 43.3847 30.992C42.6967 31.664 41.7287 32 40.4807 32ZM38.8007 29.384H40.0247C40.5367 29.384 40.8967 29.28 41.1047 29.072C41.3287 28.864 41.4407 28.504 41.4407 27.992V23.768C41.4407 23.256 41.3287 22.896 41.1047 22.688C40.8967 22.48 40.5367 22.376 40.0247 22.376H38.8007C38.2887 22.376 37.9287 22.48 37.7207 22.688C37.5127 22.896 37.4087 23.256 37.4087 23.768V27.992C37.4087 28.504 37.5127 28.864 37.7207 29.072C37.9287 29.28 38.2887 29.384 38.8007 29.384ZM49.3796 32H47.3396C47.0036 32 46.8356 31.832 46.8356 31.496V20.264C46.8356 19.928 47.0036 19.76 47.3396 19.76H49.3796C49.7156 19.76 49.8836 19.928 49.8836 20.264V21.08H49.9796C50.1556 20.648 50.4676 20.32 50.9156 20.096C51.3636 19.872 51.8356 19.76 52.3316 19.76H53.1956C53.5156 19.76 53.6756 19.928 53.6756 20.264V21.92C53.6756 22.112 53.6356 22.248 53.5556 22.328C53.4916 22.392 53.3716 22.416 53.1956 22.4H51.5396C50.4356 22.4 49.8836 23.024 49.8836 24.272V31.496C49.8836 31.832 49.7156 32 49.3796 32ZM61.0588 32H58.9228C57.6588 32 56.6828 31.664 55.9948 30.992C55.3068 30.32 54.9628 29.352 54.9628 28.088V23.672C54.9628 22.408 55.3068 21.44 55.9948 20.768C56.6828 20.096 57.6588 19.76 58.9228 19.76H61.0588C62.3068 19.76 63.2748 20.104 63.9628 20.792C64.6668 21.464 65.0188 22.424 65.0188 23.672V28.088C65.0188 29.336 64.6668 30.304 63.9628 30.992C63.2748 31.664 62.3068 32 61.0588 32ZM59.3788 29.384H60.6028C61.1148 29.384 61.4748 29.28 61.6828 29.072C61.9068 28.864 62.0188 28.504 62.0188 27.992V23.768C62.0188 23.256 61.9068 22.896 61.6828 22.688C61.4748 22.48 61.1148 22.376 60.6028 22.376H59.3788C58.8668 22.376 58.5068 22.48 58.2988 22.688C58.0908 22.896 57.9868 23.256 57.9868 23.768V27.992C57.9868 28.504 58.0908 28.864 58.2988 29.072C58.5068 29.28 58.8668 29.384 59.3788 29.384ZM66.8857 19.76H68.9978C69.3178 19.76 69.5098 19.928 69.5738 20.264L71.6378 29.288H71.8058L73.8218 20.264C73.8858 19.928 74.0858 19.76 74.4218 19.76H76.5338C76.8698 19.76 76.9898 19.928 76.8938 20.264L73.8698 31.472C73.8058 31.824 73.5898 32 73.2218 32H70.1738C69.8378 32 69.6218 31.824 69.5258 31.472L66.5258 20.264C66.4298 19.928 66.5498 19.76 66.8857 19.76ZM78.7603 17.696V15.608C78.7603 15.288 78.9203 15.128 79.2403 15.128H81.3283C81.6483 15.128 81.8083 15.28 81.8083 15.584V17.696C81.8083 18.016 81.6483 18.176 81.3283 18.176H79.2403C78.9203 18.176 78.7603 18.016 78.7603 17.696ZM78.7603 31.496V20.264C78.7603 19.928 78.9203 19.76 79.2403 19.76H81.3043C81.6403 19.76 81.8083 19.928 81.8083 20.264V31.496C81.8083 31.704 81.7683 31.84 81.6883 31.904C81.6243 31.968 81.5043 32 81.3283 32H79.2643C78.9283 32 78.7603 31.832 78.7603 31.496ZM92.37 29.864V31.52C92.37 31.696 92.33 31.824 92.25 31.904C92.186 31.968 92.058 32 91.866 32H88.29C87.026 32 86.05 31.664 85.362 30.992C84.674 30.32 84.33 29.352 84.33 28.088V23.672C84.33 22.408 84.674 21.44 85.362 20.768C86.05 20.096 87.026 19.76 88.29 19.76H91.866C92.202 19.76 92.37 19.928 92.37 20.264V21.92C92.37 22.096 92.33 22.224 92.25 22.304C92.186 22.368 92.058 22.4 91.866 22.4H88.77C88.274 22.4 87.914 22.512 87.69 22.736C87.482 22.944 87.378 23.304 87.378 23.816V27.944C87.378 28.456 87.482 28.824 87.69 29.048C87.914 29.256 88.274 29.36 88.77 29.36H91.866C92.202 29.36 92.37 29.528 92.37 29.864Z" fill="#3F3D56"/>
<path d="M102.375 28.544V31.496C102.375 31.832 102.223 32 101.919 32H99.7826C99.4626 32 99.3026 31.832 99.3026 31.496V28.568C99.3026 28.248 99.4626 28.088 99.7826 28.088H101.919C102.223 28.088 102.375 28.24 102.375 28.544ZM109.097 32H108.113C106.881 32 105.945 31.664 105.305 30.992C104.681 30.32 104.369 29.352 104.369 28.088V23.672C104.369 22.408 104.681 21.44 105.305 20.768C105.945 20.096 106.881 19.76 108.113 19.76H109.097C109.593 19.76 110.065 19.872 110.513 20.096C110.961 20.304 111.273 20.624 111.449 21.056H111.545V15.632C111.545 15.296 111.713 15.128 112.049 15.128H114.089C114.425 15.128 114.593 15.296 114.593 15.632V31.496C114.593 31.832 114.425 32 114.089 32H112.049C111.713 32 111.545 31.832 111.545 31.496V30.704H111.449C111.273 31.136 110.961 31.464 110.513 31.688C110.065 31.896 109.593 32 109.097 32ZM111.545 27.536V24.224C111.545 23.008 110.993 22.4 109.889 22.4H108.809C108.297 22.4 107.937 22.512 107.729 22.736C107.521 22.944 107.417 23.304 107.417 23.816V27.944C107.417 28.456 107.521 28.824 107.729 29.048C107.937 29.256 108.297 29.36 108.809 29.36H109.889C110.993 29.36 111.545 28.752 111.545 27.536ZM126.266 32H120.962C119.698 32 118.722 31.664 118.034 30.992C117.346 30.32 117.002 29.352 117.002 28.088V23.672C117.002 22.408 117.346 21.44 118.034 20.768C118.722 20.096 119.698 19.76 120.962 19.76H122.858C124.122 19.76 125.098 20.096 125.786 20.768C126.474 21.44 126.818 22.408 126.818 23.672V26.72C126.818 27.056 126.65 27.224 126.314 27.224H120.29C120.098 27.224 120.002 27.312 120.002 27.488V28.016C120.002 28.512 120.106 28.872 120.314 29.096C120.538 29.304 120.906 29.408 121.418 29.408H126.266C126.602 29.408 126.77 29.584 126.77 29.936V31.52C126.77 31.696 126.73 31.824 126.65 31.904C126.586 31.968 126.458 32 126.266 32ZM120.29 25.184H123.554C123.73 25.184 123.818 25.096 123.818 24.92V23.768C123.818 23.256 123.714 22.896 123.506 22.688C123.298 22.48 122.938 22.376 122.426 22.376H121.418C120.906 22.376 120.546 22.48 120.338 22.688C120.13 22.896 120.026 23.256 120.026 23.768V24.92C120.026 25.096 120.114 25.184 120.29 25.184ZM128.573 19.76H130.685C131.005 19.76 131.197 19.928 131.261 20.264L133.325 29.288H133.493L135.509 20.264C135.573 19.928 135.773 19.76 136.109 19.76H138.221C138.557 19.76 138.677 19.928 138.581 20.264L135.557 31.472C135.493 31.824 135.277 32 134.909 32H131.861C131.525 32 131.309 31.824 131.213 31.472L128.213 20.264C128.117 19.928 128.237 19.76 128.573 19.76Z" fill="white"/>
</svg>
