<svg width="96" height="96" viewBox="0 0 96 96" fill="none" xmlns="http://www.w3.org/2000/svg">
<path d="M48 3C39.0999 3 30.3996 5.6392 22.9994 10.5839C15.5991 15.5285 9.83139 22.5566 6.42544 30.7792C3.0195 39.0019 2.12835 48.0499 3.86468 56.7791C5.60102 65.5082 9.88685 73.5264 16.1802 79.8198C22.4736 86.1132 30.4918 90.399 39.221 92.1353C47.9501 93.8717 56.9981 92.9805 65.2208 89.5746C73.4435 86.1686 80.4715 80.4009 85.4162 73.0007C90.3608 65.6004 93 56.9002 93 48C92.9853 36.0698 88.2396 24.6324 79.8036 16.1964C71.3677 7.76046 59.9303 3.01469 48 3ZM48 90C39.6932 90 31.5729 87.5367 24.6661 82.9217C17.7592 78.3067 12.376 71.7472 9.19708 64.0727C6.0182 56.3982 5.18646 47.9534 6.80704 39.8062C8.42762 31.659 12.4277 24.1753 18.3015 18.3015C24.1753 12.4277 31.659 8.4276 39.8062 6.80702C47.9534 5.18644 56.3982 6.01818 64.0727 9.19706C71.7472 12.3759 78.3067 17.7592 82.9218 24.666C87.5368 31.5729 90 39.6932 90 48C89.9877 59.1353 85.5588 69.811 77.6849 77.6849C69.8111 85.5588 59.1353 89.9877 48 90Z" fill="#A378CD"/>
<path d="M58.5 70.5H37.5C37.1022 70.5 36.7206 70.658 36.4393 70.9393C36.158 71.2206 36 71.6022 36 72V84C36 84.3978 36.158 84.7794 36.4393 85.0607C36.7206 85.342 37.1022 85.5 37.5 85.5H58.5C58.8978 85.5 59.2794 85.342 59.5607 85.0607C59.842 84.7794 60 84.3978 60 84V72C60 71.6022 59.842 71.2206 59.5607 70.9393C59.2794 70.658 58.8978 70.5 58.5 70.5ZM57 82.5H39V73.5H57V82.5Z" fill="#A378CD"/>
<path d="M48 10.5C38.0571 10.5087 28.5239 14.4624 21.4931 21.4931C14.4624 28.5239 10.5087 38.0571 10.5 48C10.5 48.3978 10.658 48.7794 10.9393 49.0607C11.2206 49.342 11.6022 49.5 12 49.5H24C24.3978 49.5 24.7794 49.342 25.0607 49.0607C25.342 48.7794 25.5 48.3978 25.5 48C25.4982 43.7414 26.7055 39.5699 28.9814 35.9705C31.2574 32.3711 34.5084 29.4919 38.3565 27.6676C42.2045 25.8434 46.4914 25.1491 50.7186 25.6656C54.9457 26.182 58.9393 27.888 62.235 30.585L52.5 38.535C50.2524 37.459 47.6967 37.2125 45.2848 37.8391C42.873 38.4657 40.7605 39.925 39.3208 41.959C37.8812 43.993 37.2072 46.4705 37.4181 48.9535C37.629 51.4364 38.7111 53.7648 40.4732 55.5268C42.2352 57.2889 44.5636 58.371 47.0465 58.5819C49.5295 58.7928 52.007 58.1188 54.041 56.6792C56.075 55.2395 57.5343 53.127 58.1609 50.7152C58.7875 48.3033 58.541 45.7476 57.465 43.5L65.415 33.765C68.7093 37.7768 70.5069 42.8089 70.5 48C70.5 48.3978 70.658 48.7794 70.9393 49.0607C71.2206 49.342 71.6022 49.5 72 49.5H84C84.3978 49.5 84.7794 49.342 85.0607 49.0607C85.342 48.7794 85.5 48.3978 85.5 48C85.4913 38.0571 81.5376 28.5239 74.5069 21.4931C67.4761 14.4624 57.9429 10.5087 48 10.5ZM22.545 46.5H13.53C13.7476 41.4646 15.0687 36.5385 17.4 32.07L25.23 36.585C23.6614 39.6697 22.7473 43.0453 22.545 46.5ZM26.73 33.99L18.915 29.475C21.6243 25.2282 25.2282 21.6243 29.475 18.915L33.975 26.715C31.096 28.6289 28.632 31.1031 26.73 33.99ZM46.5 22.575C43.0495 22.7692 39.6752 23.6677 36.585 25.215L32.07 17.4C36.5385 15.0687 41.4646 13.7476 46.5 13.53V22.575ZM48 55.5C46.0109 55.5 44.1032 54.7098 42.6967 53.3033C41.2902 51.8968 40.5 49.9891 40.5 48C40.5 46.0109 41.2902 44.1032 42.6967 42.6967C44.1032 41.2902 46.0109 40.5 48 40.5C48.6115 40.5064 49.2204 40.5819 49.815 40.725L44.925 44.715C44.8863 44.7461 44.8511 44.7813 44.82 44.82C44.3779 45.232 44.0233 45.7288 43.7773 46.2808C43.5314 46.8328 43.3991 47.4286 43.3885 48.0329C43.3778 48.6371 43.4889 49.2373 43.7153 49.7976C43.9416 50.3579 44.2785 50.8669 44.7058 51.2942C45.1331 51.7215 45.6421 52.0584 46.2024 52.2847C46.7627 52.5111 47.3629 52.6222 47.9671 52.6115C48.5714 52.6009 49.1672 52.4686 49.7192 52.2227C50.2712 51.9767 50.768 51.6221 51.18 51.18C51.2187 51.1489 51.2539 51.1137 51.285 51.075L55.275 46.185C55.4181 46.7796 55.4936 47.3885 55.5 48C55.5 49.9891 54.7098 51.8968 53.3033 53.3033C51.8968 54.7098 49.9891 55.5 48 55.5ZM49.02 49.11C48.728 49.3608 48.3537 49.4949 47.9689 49.4866C47.5841 49.4783 47.2159 49.3282 46.935 49.065C46.7953 48.9253 46.6849 48.7592 46.6102 48.5763C46.5355 48.3935 46.498 48.1975 46.5 48C46.4993 47.6234 46.6382 47.26 46.89 46.98L58.44 37.56L49.02 49.11ZM49.5 22.575V13.53C54.5354 13.7476 59.4615 15.0687 63.93 17.4L59.415 25.215C56.3248 23.6677 52.9505 22.7692 49.5 22.575ZM69.27 33.99C68.6809 33.0895 68.0345 32.2277 67.335 31.41L70.155 27.945C70.3934 27.6592 70.5162 27.2946 70.4994 26.9228C70.4826 26.551 70.3274 26.1989 70.0642 25.9358C69.8011 25.6726 69.449 25.5174 69.0772 25.5006C68.7054 25.4838 68.3408 25.6066 68.055 25.845L64.575 28.68C63.7651 27.9745 62.9136 27.3183 62.025 26.715L66.525 18.915C70.7718 21.6243 74.3757 25.2282 77.085 29.475L69.27 33.99ZM73.455 46.5C73.2527 43.0453 72.3386 39.6697 70.77 36.585L78.6 32.07C80.9313 36.5385 82.2524 41.4646 82.47 46.5H73.455Z" fill="#A378CD"/>
<path d="M66 58.5C65.11 58.5 64.24 58.7639 63.4999 59.2584C62.7599 59.7529 62.1831 60.4557 61.8425 61.2779C61.502 62.1002 61.4128 63.005 61.5865 63.8779C61.7601 64.7508 62.1887 65.5526 62.818 66.182C63.4474 66.8113 64.2492 67.2399 65.1221 67.4135C65.995 67.5872 66.8998 67.4981 67.7221 67.1575C68.5443 66.8169 69.2472 66.2401 69.7416 65.5001C70.2361 64.76 70.5 63.89 70.5 63C70.5 61.8065 70.0259 60.6619 69.182 59.818C68.3381 58.9741 67.1935 58.5 66 58.5ZM66 64.5C65.7033 64.5 65.4133 64.412 65.1667 64.2472C64.92 64.0824 64.7277 63.8481 64.6142 63.574C64.5007 63.2999 64.4709 62.9983 64.5288 62.7074C64.5867 62.4164 64.7296 62.1491 64.9393 61.9393C65.1491 61.7296 65.4164 61.5867 65.7074 61.5288C65.9983 61.4709 66.2999 61.5007 66.574 61.6142C66.8481 61.7277 67.0824 61.92 67.2472 62.1666C67.412 62.4133 67.5 62.7033 67.5 63C67.5 63.3978 67.342 63.7794 67.0607 64.0607C66.7794 64.342 66.3978 64.5 66 64.5Z" fill="#A378CD"/>
<path d="M78 58.5C77.11 58.5 76.24 58.7639 75.4999 59.2584C74.7599 59.7529 74.1831 60.4557 73.8425 61.2779C73.502 62.1002 73.4128 63.005 73.5865 63.8779C73.7601 64.7508 74.1887 65.5526 74.818 66.182C75.4474 66.8113 76.2492 67.2399 77.1221 67.4135C77.995 67.5872 78.8998 67.4981 79.7221 67.1575C80.5443 66.8169 81.2472 66.2401 81.7416 65.5001C82.2361 64.76 82.5 63.89 82.5 63C82.5 61.8065 82.0259 60.6619 81.182 59.818C80.3381 58.9741 79.1935 58.5 78 58.5ZM78 64.5C77.7033 64.5 77.4133 64.412 77.1667 64.2472C76.92 64.0824 76.7277 63.8481 76.6142 63.574C76.5007 63.2999 76.4709 62.9983 76.5288 62.7074C76.5867 62.4164 76.7296 62.1491 76.9393 61.9393C77.1491 61.7296 77.4164 61.5867 77.7074 61.5288C77.9983 61.4709 78.2999 61.5007 78.574 61.6142C78.8481 61.7277 79.0824 61.92 79.2472 62.1666C79.412 62.4133 79.5 62.7033 79.5 63C79.5 63.3978 79.342 63.7794 79.0607 64.0607C78.7794 64.342 78.3978 64.5 78 64.5Z" fill="#A378CD"/>
<path d="M30 58.5C29.11 58.5 28.24 58.7639 27.4999 59.2584C26.7599 59.7529 26.1831 60.4557 25.8425 61.2779C25.5019 62.1002 25.4128 63.005 25.5865 63.8779C25.7601 64.7508 26.1887 65.5526 26.818 66.182C27.4474 66.8113 28.2492 67.2399 29.1221 67.4135C29.995 67.5872 30.8998 67.4981 31.7221 67.1575C32.5443 66.8169 33.2471 66.2401 33.7416 65.5001C34.2361 64.76 34.5 63.89 34.5 63C34.5 61.8065 34.0259 60.6619 33.182 59.818C32.3381 58.9741 31.1935 58.5 30 58.5ZM30 64.5C29.7033 64.5 29.4133 64.412 29.1666 64.2472C28.92 64.0824 28.7277 63.8481 28.6142 63.574C28.5007 63.2999 28.4709 62.9983 28.5288 62.7074C28.5867 62.4164 28.7296 62.1491 28.9393 61.9393C29.1491 61.7296 29.4164 61.5867 29.7074 61.5288C29.9983 61.4709 30.2999 61.5007 30.574 61.6142C30.8481 61.7277 31.0824 61.92 31.2472 62.1666C31.412 62.4133 31.5 62.7033 31.5 63C31.5 63.3978 31.342 63.7794 31.0607 64.0607C30.7794 64.342 30.3978 64.5 30 64.5Z" fill="#A378CD"/>
<path d="M18 58.5C17.11 58.5 16.24 58.7639 15.4999 59.2584C14.7599 59.7529 14.1831 60.4557 13.8425 61.2779C13.5019 62.1002 13.4128 63.005 13.5865 63.8779C13.7601 64.7508 14.1887 65.5526 14.818 66.182C15.4474 66.8113 16.2492 67.2399 17.1221 67.4135C17.995 67.5872 18.8998 67.4981 19.7221 67.1575C20.5443 66.8169 21.2471 66.2401 21.7416 65.5001C22.2361 64.76 22.5 63.89 22.5 63C22.5 61.8065 22.0259 60.6619 21.182 59.818C20.3381 58.9741 19.1935 58.5 18 58.5ZM18 64.5C17.7033 64.5 17.4133 64.412 17.1666 64.2472C16.92 64.0824 16.7277 63.8481 16.6142 63.574C16.5007 63.2999 16.4709 62.9983 16.5288 62.7074C16.5867 62.4164 16.7296 62.1491 16.9393 61.9393C17.1491 61.7296 17.4164 61.5867 17.7074 61.5288C17.9983 61.4709 18.2999 61.5007 18.574 61.6142C18.8481 61.7277 19.0824 61.92 19.2472 62.1666C19.412 62.4133 19.5 62.7033 19.5 63C19.5 63.3978 19.342 63.7794 19.0607 64.0607C18.7794 64.342 18.3978 64.5 18 64.5Z" fill="#A378CD"/>
<path d="M37.5 61.5H40.5V64.5H37.5V61.5Z" fill="#A378CD"/>
<path d="M43.5 61.5H51V64.5H43.5V61.5Z" fill="#A378CD"/>
<path d="M54 61.5H57V64.5H54V61.5Z" fill="#A378CD"/>
</svg>
